<?xml version="1.0" encoding="utf-8"?>
<!-- Generator: Adobe Illustrator 16.0.0, SVG Export Plug-In . SVG Version: 6.00 Build 0)  -->
<!DOCTYPE svg PUBLIC "-//W3C//DTD SVG 1.0//EN" "http://www.w3.org/TR/2001/REC-SVG-20010904/DTD/svg10.dtd">
<svg version="1.0" id="Layer_1" xmlns="http://www.w3.org/2000/svg" xmlns:xlink="http://www.w3.org/1999/xlink" x="0px" y="0px"
	 width="253.746px" height="254.196px" viewBox="0 0 253.746 254.196" enable-background="new 0 0 253.746 254.196"
	 xml:space="preserve">
<g>
	<g>
		<path fill="#EC2024" d="M27.287,196.479c-0.11,3.436-0.221,6.87-0.221,10.305c0,3.438,0.11,6.87,0.221,10.308h-1.662l-0.055-1.662
			c-0.223-5.931-2.217-7.813-5.043-7.813h-0.166v-1.663h0.166c2.826,0,4.82-1.883,5.043-7.812l0.055-1.662H27.287z M17.314,182.462
			c2.992-2.716,5.208-5.042,5.208-8.922h8.255v1.108l-12.576,8.865L17.314,182.462z M17.037,189.054v36.015h11.025
			c4.932,0,9.31-2.438,9.642-9.474l0.11-2.327h1.662c-0.109,3.324-0.277,7.313-0.389,13.35l-0.221,0.224
			c-1.109-0.055-3.49-0.11-5.983-0.11H4.848v-1.662h5.541v-36.015H4.848v-1.662h18.283c0,0,11.691,0,14.684-0.222l0.222,0.222
			c-0.166,4.821-0.166,8.812-0.222,13.354h-1.662v-2.328c0-7.035-4.211-9.363-9.197-9.363H17.037z"/>
		<path fill="#EC2024" d="M16.621,95.529v36.014h9.419v1.661H4.432v-1.661h5.541V95.529H4.432v-1.662h20.224
			c9.974,0,15.237,4.596,15.237,11.912c0,7.311-5.264,11.912-15.237,11.912h-3.046v-1.662h3.046c4.765,0,8.034-1.609,8.034-9.697
			v-1.107c0-8.09-3.27-9.695-8.034-9.695H16.621z"/>
		<path fill="#EC2024" d="M86.261,95.525v36.016h9.419v1.661H74.071v-1.661h5.54V95.525h-5.54v-1.662h20.224
			c9.973,0,15.236,4.6,15.236,11.909c0,7.317-5.264,11.917-15.236,11.917h-3.047v-1.663h3.047c4.765,0,8.033-1.608,8.033-9.696
			v-1.107c0-8.09-3.269-9.697-8.033-9.697H86.261z"/>
		<path fill="#EC2024" d="M81.551,214.265h15.902l-7.092-19.172h-1.109L81.551,214.265z M84.045,226.73H69.639v-1.662h5.43
			l15.902-38.229h1.662l15.957,38.229h5.373v1.662H95.125v-1.662h6.316l-3.324-9.029H80.832l-3.603,9.029h6.815V226.73z"/>
		<path fill="#EC2024" d="M19.613,8.254h1.109l7.092,19.171H11.913L19.613,8.254z M21.332,0L5.43,38.23H0v1.663h14.405V38.23H7.592
			l3.602-9.033h17.285l3.325,9.033h-6.316v1.663h18.837V38.23h-5.372L22.994,0H21.332z"/>
	</g>
	<g>
		<rect x="140.024" y="66.379" fill="#EC2024" width="113.722" height="0.8"/>
		<rect x="140.024" y="253.396" fill="#EC2024" width="113.722" height="0.801"/>
	</g>
	<g>
		<rect x="70.295" y="159.888" fill="#EC2024" width="43.012" height="0.801"/>
		<rect x="70.951" y="253.396" fill="#EC2024" width="43.012" height="0.801"/>
		<rect x="0.655" y="159.888" fill="#EC2024" width="43.013" height="0.801"/>
		<rect x="0.655" y="253.396" fill="#EC2024" width="43.013" height="0.801"/>
		<rect x="70.295" y="66.379" fill="#EC2024" width="43.012" height="0.8"/>
		<rect x="0.655" y="66.379" fill="#EC2024" width="43.013" height="0.8"/>
	</g>
	<g>
		<path fill="#EC2024" d="M221.585,215.693h-8.277v1.188h3.472v9.849h1.335v-9.849h3.471V215.693z M202.903,216.881h2.199
			c1.832,0,2.543,1.205,2.543,2.262c0,1.034-0.689,2.069-2.543,2.069h-2.199V216.881z M207.796,226.729h1.51v-0.087l-2.398-4.488
			c1.272-0.533,2.031-1.639,2.031-3.012c0-1.832-1.335-3.449-3.836-3.449h-3.535v11.036h1.336v-4.289h2.646L207.796,226.729z
			 M192.65,217.742h0.15l1.605,4.85h-3.373L192.65,217.742z M189.654,226.729l0.986-2.952h4.159l0.976,2.952h1.424l-3.796-11.036
			h-1.378l-3.793,11.036H189.654z M186.125,215.693h-1.207v0.992c0,0.797-0.387,1.487-0.84,2.133l0.689,0.562
			c0.861-0.69,1.357-1.832,1.357-2.717V215.693z M175.312,216.881c2.285,0,3.836,1.766,3.836,4.309c0,2.631-1.53,4.354-3.986,4.354
			h-1.64v-8.663H175.312z M175.247,226.729c3.081,0,5.26-2.091,5.26-5.54c0-3.427-2.2-5.496-5.109-5.496h-3.211v11.036H175.247z"/>
		<path fill="#EC2024" d="M251.313,198.241h1.337c-0.108-1.746-1.595-2.996-3.729-2.996c-2.111,0-3.771,1.229-3.771,3.082
			c0,1.488,1.056,2.369,2.781,2.867l1.356,0.391c1.486,0.43,2.155,0.943,2.155,1.873c0,1.121-0.99,1.916-2.501,1.916
			c-1.422,0-2.563-0.645-2.714-1.852h-1.381c0.131,1.875,1.703,3.104,3.967,3.104c2.78,0,3.987-1.617,3.987-3.275
			c0-1.531-1.013-2.395-3.104-2.955l-1.119-0.301c-1.466-0.389-2.049-0.947-2.049-1.811c0-1.076,0.927-1.811,2.35-1.811
			C250.215,196.474,251.119,197.142,251.313,198.241 M240.551,205.245h-5.409v-3.75h4.764v-1.184h-4.764v-3.729h5.322v-1.188h-6.659
			v11.037h6.746V205.245z M222.763,200.956v-4.373h2.198c1.833,0,2.48,0.861,2.48,2.262c0,1.1-0.972,2.111-2.48,2.111H222.763z
			 M226.749,201.825c1.278-0.533,2.049-1.654,2.049-2.98c0-2.113-1.38-3.449-3.837-3.449h-3.535v7.266
			c0,1.594-1.402,2.693-2.975,2.693c-1.574,0-2.909-1.1-2.909-2.693v-7.266h-1.337v7.266c0,2.436,1.897,3.922,4.225,3.922
			c2.221,0,4.333-1.486,4.333-3.922v-0.518h2.645l2.248,4.289h1.509v-0.088L226.749,201.825z M209.393,205.245h-5.41v-3.75h4.764
			v-1.184h-4.764v-3.729h5.323v-1.188h-6.66v11.037h6.747V205.245z M197.444,195.396h-1.337v11.035h1.337V195.396z M185.26,196.583
			h2.197c1.832,0,2.544,1.205,2.544,2.262c0,1.035-0.69,2.07-2.544,2.07h-2.197V196.583z M190.152,206.433h1.508v-0.088
			l-2.397-4.486c1.272-0.535,2.031-1.641,2.031-3.014c0-1.832-1.336-3.449-3.837-3.449h-3.533v11.037h1.336v-4.289h2.646
			L190.152,206.433z M175.144,194.405h0.947l1.66-2.199h-1.314L175.144,194.405z M179.108,205.245H173.7v-3.75h4.762v-1.184H173.7
			v-3.729h5.322v-1.188h-6.659v11.037h6.745V205.245z M162.25,201.087v-4.504h2.351c1.746,0,2.393,0.926,2.393,2.305
			c0,1.207-0.862,2.199-2.586,2.199H162.25z M160.915,195.396v7.266c0,1.594-1.4,2.693-2.975,2.693c-1.573,0-2.91-1.1-2.91-2.693
			v-7.266h-1.337v7.266c0,2.436,1.897,3.922,4.226,3.922c2.221,0,4.331-1.486,4.331-3.922v-0.389h2.502
			c1.853,0,3.556-1.293,3.556-3.385c0-1.918-1.164-3.492-3.707-3.492H160.915z M147.438,198.241h1.336
			c-0.109-1.746-1.598-2.996-3.73-2.996c-2.111,0-3.77,1.229-3.77,3.082c0,1.488,1.055,2.369,2.779,2.867l1.357,0.391
			c1.486,0.43,2.156,0.943,2.156,1.873c0,1.121-0.994,1.916-2.502,1.916c-1.422,0-2.562-0.645-2.715-1.852h-1.379
			c0.129,1.875,1.703,3.104,3.965,3.104c2.781,0,3.988-1.617,3.988-3.275c0-1.531-1.014-2.395-3.104-2.955l-1.123-0.301
			c-1.465-0.389-2.045-0.947-2.045-1.811c0-1.076,0.926-1.811,2.348-1.811C146.336,196.474,147.242,197.142,147.438,198.241"/>
		<path fill="#EC2024" d="M251.055,157.052h1.337c-0.108-1.745-1.595-2.995-3.729-2.995c-2.112,0-3.773,1.228-3.773,3.083
			c0,1.486,1.058,2.37,2.782,2.865l1.357,0.388c1.488,0.432,2.155,0.95,2.155,1.875c0,1.121-0.992,1.918-2.499,1.918
			c-1.423,0-2.564-0.647-2.716-1.853h-1.381c0.13,1.875,1.703,3.104,3.966,3.104c2.78,0,3.988-1.615,3.988-3.275
			c0-1.531-1.014-2.393-3.104-2.954l-1.121-0.301c-1.464-0.389-2.046-0.948-2.046-1.81c0-1.079,0.926-1.812,2.349-1.812
			C249.956,155.284,250.86,155.954,251.055,157.052 M239.164,164.057h-5.409v-3.75h4.762v-1.186h-4.762v-3.728h5.322v-1.186h-6.659
			v11.033h6.746V164.057z M224.709,154.208v7.264c0,1.594-1.4,2.693-2.975,2.693s-2.911-1.1-2.911-2.693v-7.264h-1.336v7.264
			c0,2.436,1.897,3.922,4.226,3.922c2.221,0,4.331-1.486,4.331-3.922v-7.264H224.709z M207.947,161.946l-1.122,0.818l0.96,1.262
			c-0.27,0.079-0.556,0.115-0.852,0.115c-1.832,0-3.232-1.548-3.232-4.417c0-2.868,1.4-4.418,3.232-4.418s3.232,1.55,3.232,4.418
			c0,1.654-0.469,2.873-1.212,3.605L207.947,161.946z M211.46,159.725c0-3.492-1.875-5.668-4.526-5.668s-4.526,2.176-4.526,5.668
			c0,3.493,1.875,5.669,4.526,5.669c0.593,0,1.146-0.108,1.648-0.317l1.24,1.632l1.013-0.797l-1.121-1.541
			C210.803,163.405,211.46,161.795,211.46,159.725 M196.25,154.208h-1.336v11.033h1.336V154.208z M189.23,164.057h-4.958v-9.849
			h-1.336v11.033h6.294V164.057z M175.724,162.118c0,1.378-1.122,1.938-2.415,1.938h-2.478v-3.794h2.542
			C174.774,160.263,175.724,160.847,175.724,162.118 M170.831,155.394h2.283c1.424,0,2.156,0.882,2.156,1.766
			c0,0.954-0.841,1.779-1.864,1.902l-2.231,0.017h-0.344V155.394z M173.309,165.241c2.178,0,3.729-1.119,3.729-3.123
			c0-1.311-0.787-2.183-2.042-2.463c0.996-0.496,1.611-1.445,1.611-2.496c0-1.552-1.293-2.951-3.493-2.951h-3.62v11.033H173.309z
			 M161.785,154.208v7.264c0,1.594-1.4,2.693-2.975,2.693s-2.91-1.1-2.91-2.693v-7.264h-1.336v7.264
			c0,2.436,1.896,3.922,4.225,3.922c2.22,0,4.331-1.486,4.331-3.922v-7.264H161.785z M142.566,155.394h2.348
			c1.746,0,2.393,0.925,2.393,2.305c0,1.208-0.861,2.199-2.586,2.199h-2.154V155.394z M145.064,161.082
			c1.855,0,3.557-1.291,3.557-3.384c0-1.918-1.162-3.49-3.707-3.49h-3.686v11.033h1.338v-4.159H145.064z"/>
		<path fill="#EC2024" d="M251.529,177.963h1.336c-0.107-1.743-1.595-2.994-3.729-2.994c-2.112,0-3.771,1.228-3.771,3.082
			c0,1.486,1.056,2.371,2.78,2.867l1.357,0.386c1.488,0.432,2.155,0.95,2.155,1.876c0,1.121-0.992,1.918-2.499,1.918
			c-1.423,0-2.564-0.646-2.716-1.853h-1.381c0.13,1.874,1.703,3.104,3.966,3.104c2.78,0,3.987-1.615,3.987-3.275
			c0-1.532-1.013-2.394-3.104-2.954l-1.121-0.301c-1.464-0.39-2.046-0.95-2.046-1.811c0-1.078,0.926-1.812,2.349-1.812
			C250.431,176.196,251.335,176.866,251.529,177.963 M240.847,184.969h-5.409v-3.75h4.764v-1.187h-4.764v-3.728h5.323v-1.185h-6.66
			v11.034h6.746V184.969z M229.54,184.969h-4.956v-9.849h-1.338v11.034h6.294V184.969z M217.135,180.637
			c0,2.868-1.401,4.418-3.233,4.418c-1.833,0-3.234-1.55-3.234-4.418s1.401-4.417,3.234-4.417
			C215.733,176.22,217.135,177.769,217.135,180.637 M218.426,180.637c0-3.492-1.875-5.668-4.524-5.668
			c-2.652,0-4.527,2.176-4.527,5.668s1.875,5.669,4.527,5.669C216.551,186.306,218.426,184.129,218.426,180.637 M204.986,177.963
			c-0.365-1.895-2.037-2.994-3.923-2.994c-2.652,0-4.527,2.176-4.527,5.668c0,3.513,1.875,5.669,4.527,5.669
			c1.891,0,3.558-1.1,3.923-2.998h-1.401c-0.259,1.1-1.379,1.747-2.521,1.747c-1.832,0-3.233-1.658-3.233-4.418
			s1.401-4.417,3.233-4.417c1.143,0,2.286,0.646,2.521,1.743H204.986z M188.183,174.127h0.949l1.659-2.199h-1.315L188.183,174.127z
			 M192.149,184.969h-5.41v-3.75h4.763v-1.187h-4.763v-3.728h5.323v-1.185h-6.661v11.034h6.748V184.969z M168.004,175.12h-1.51
			l3.213,5.517l-3.213,5.518h1.51l2.544-4.375c0.043-0.064,0.043-0.106,0.043-0.195h0.085c0,0.089,0,0.131,0.044,0.195l2.586,4.375
			h1.51l-3.211-5.518l3.211-5.517h-1.51l-2.586,4.46c-0.044,0.066-0.044,0.108-0.044,0.195h-0.085c0-0.087,0-0.129-0.043-0.195
			L168.004,175.12z M160.943,175.12v7.263c0,1.595-1.4,2.694-2.975,2.694s-2.911-1.1-2.911-2.694v-7.263h-1.335v7.263
			c0,2.436,1.896,3.923,4.225,3.923c2.22,0,4.333-1.487,4.333-3.923v-7.263H160.943z M145.174,177.167h0.15l1.607,4.849h-3.375
			L145.174,177.167z M142.178,186.154l0.986-2.952h4.16l0.975,2.952h1.424l-3.795-11.034h-1.379l-3.793,11.034H142.178z"/>
		<path fill="#EC2024" d="M251.097,137.411h1.336c-0.106-1.744-1.593-2.994-3.728-2.994c-2.111,0-3.771,1.229-3.771,3.082
			c0,1.486,1.056,2.371,2.781,2.867l1.356,0.387c1.487,0.432,2.155,0.949,2.155,1.875c0,1.121-0.99,1.918-2.5,1.918
			c-1.423,0-2.564-0.646-2.715-1.854h-1.381c0.131,1.877,1.703,3.104,3.967,3.104c2.78,0,3.986-1.615,3.986-3.275
			c0-1.529-1.012-2.393-3.104-2.953l-1.119-0.301c-1.467-0.387-2.049-0.947-2.049-1.811c0-1.078,0.927-1.811,2.35-1.811
			C249.999,135.646,250.903,136.315,251.097,137.411 M235.814,136.616h0.151l1.604,4.85h-3.372L235.814,136.616z M232.819,145.603
			l0.986-2.953h4.16l0.975,2.953h1.423l-3.794-11.035h-1.379l-3.794,11.035H232.819z M222.089,135.753h2.35
			c1.746,0,2.394,0.926,2.394,2.305c0,1.209-0.864,2.199-2.588,2.199h-2.155V135.753z M224.589,141.442
			c1.854,0,3.557-1.291,3.557-3.385c0-1.918-1.163-3.49-3.707-3.49h-3.685v11.035h1.335v-4.16H224.589z M211.483,133.575h0.949
			l1.659-2.199h-1.315L211.483,133.575z M215.45,144.417h-5.411v-3.75h4.764v-1.186h-4.764v-3.729h5.324v-1.186h-6.661v11.035h6.748
			V144.417z M197.278,135.753h2.198c1.832,0,2.544,1.209,2.544,2.264c0,1.033-0.69,2.068-2.544,2.068h-2.198V135.753z
			 M202.171,145.603h1.51v-0.084l-2.399-4.49c1.271-0.533,2.032-1.639,2.032-3.012c0-1.832-1.336-3.449-3.837-3.449h-3.535v11.035
			h1.337v-4.289h2.646L202.171,145.603z M184.583,135.753h2.349c1.745,0,2.393,0.926,2.393,2.305c0,1.209-0.862,2.199-2.587,2.199
			h-2.154V135.753z M187.083,141.442c1.854,0,3.556-1.291,3.556-3.385c0-1.918-1.164-3.49-3.707-3.49h-3.686v11.035h1.337v-4.16
			H187.083z M172.591,137.411h1.338c-0.109-1.744-1.595-2.994-3.73-2.994c-2.11,0-3.771,1.229-3.771,3.082
			c0,1.486,1.056,2.371,2.78,2.867l1.357,0.387c1.488,0.432,2.155,0.949,2.155,1.875c0,1.121-0.991,1.918-2.499,1.918
			c-1.423,0-2.565-0.646-2.716-1.854h-1.379c0.129,1.877,1.701,3.104,3.965,3.104c2.78,0,3.988-1.615,3.988-3.275
			c0-1.529-1.014-2.393-3.104-2.953l-1.122-0.301c-1.466-0.387-2.047-0.947-2.047-1.811c0-1.078,0.926-1.811,2.348-1.811
			C171.492,135.646,172.398,136.315,172.591,137.411 M161.341,144.417h-5.411v-3.75h4.764v-1.186h-4.764v-3.729h5.324v-1.186h-6.661
			v11.035h6.748V144.417z M144.312,135.753c2.283,0,3.836,1.768,3.836,4.312c0,2.627-1.531,4.352-3.986,4.352h-1.639v-8.664H144.312
			z M144.248,145.603c3.082,0,5.258-2.09,5.258-5.537c0-3.43-2.197-5.498-5.107-5.498h-3.211v11.035H144.248z"/>
		<path fill="#EC2024" d="M252.521,124.161h-5.412v-3.748h4.765v-1.188h-4.765v-3.729h5.324v-1.184h-6.659v11.035h6.747V124.161z
			 M239.869,124.161h-4.956v-9.848h-1.338v11.035h6.294V124.161z M223.467,116.36h0.151l1.606,4.85h-3.375L223.467,116.36z
			 M220.471,125.349l0.986-2.953h4.16l0.976,2.953h1.423l-3.793-11.035h-1.38l-3.793,11.035H220.471z M213.488,114.313h-1.313v8.686
			h-0.108l-5.819-8.686h-1.294v11.035h1.336v-8.643h0.109l5.798,8.643h1.292V114.313z M197.498,119.829
			c0,2.869-1.401,4.418-3.233,4.418c-1.833,0-3.234-1.549-3.234-4.418c0-2.865,1.401-4.416,3.234-4.416
			C196.097,115.413,197.498,116.964,197.498,119.829 M198.79,119.829c0-3.492-1.876-5.668-4.525-5.668
			c-2.652,0-4.527,2.176-4.527,5.668s1.875,5.67,4.527,5.67C196.914,125.499,198.79,123.321,198.79,119.829 M183.445,114.313h-1.336
			v11.035h1.336V114.313z M176.29,114.313h-8.276v1.184h3.47v9.852h1.336v-9.852h3.471V114.313z M159.764,116.36h0.151l1.606,4.85
			h-3.373L159.764,116.36z M156.769,125.349l0.986-2.953h4.159l0.975,2.953h1.423l-3.793-11.035h-1.38l-3.792,11.035H156.769z
			 M149.785,114.313h-1.314v8.686h-0.107l-5.82-8.686h-1.293v11.035h1.336v-8.643h0.107l5.799,8.643h1.293V114.313z"/>
		<path fill="#EC2024" d="M252.778,94.015h-1.315v8.686h-0.106l-5.819-8.686h-1.295v11.035h1.338v-8.642h0.108l5.798,8.642h1.292
			V94.015z M238.652,99.532c0,2.867-1.4,4.419-3.233,4.419c-1.831,0-3.233-1.552-3.233-4.419c0-2.866,1.402-4.418,3.233-4.418
			C237.252,95.114,238.652,96.666,238.652,99.532 M239.944,99.532c0-3.493-1.875-5.669-4.525-5.669
			c-2.652,0-4.527,2.176-4.527,5.669c0,3.491,1.875,5.668,4.527,5.668C238.069,105.2,239.944,103.023,239.944,99.532
			 M226.467,94.015h-1.338v11.035h1.338V94.015z M221.176,94.015h-8.276V95.2h3.47v9.85h1.337V95.2h3.47V94.015z M206.517,96.062
			h0.15l1.606,4.85h-3.374L206.517,96.062z M203.521,105.05l0.986-2.953h4.159l0.976,2.953h1.422l-3.792-11.035h-1.38l-3.795,11.035
			H203.521z M198.273,94.015h-1.336v11.035h1.336V94.015z M192.812,96.858c-0.365-1.896-2.035-2.995-3.922-2.995
			c-2.651,0-4.527,2.176-4.527,5.669c0,3.512,1.876,5.668,4.527,5.668c1.891,0,3.557-1.1,3.922-2.995h-1.4
			c-0.258,1.1-1.379,1.746-2.521,1.746c-1.832,0-3.233-1.66-3.233-4.419c0-2.761,1.401-4.418,3.233-4.418
			c1.143,0,2.284,0.646,2.521,1.744H192.812z M184.276,99.532c0,2.867-1.401,4.419-3.233,4.419c-1.833,0-3.233-1.552-3.233-4.419
			c0-2.866,1.4-4.418,3.233-4.418C182.875,95.114,184.276,96.666,184.276,99.532 M185.57,99.532c0-3.493-1.875-5.669-4.527-5.669
			s-4.526,2.176-4.526,5.669c0,3.491,1.874,5.668,4.526,5.668S185.57,103.023,185.57,99.532 M171.206,96.858h1.337
			c-0.108-1.744-1.596-2.995-3.729-2.995c-2.112,0-3.772,1.228-3.772,3.082c0,1.487,1.057,2.371,2.781,2.867l1.357,0.388
			c1.488,0.431,2.155,0.948,2.155,1.876c0,1.119-0.991,1.918-2.499,1.918c-1.423,0-2.565-0.647-2.717-1.854h-1.379
			c0.129,1.875,1.702,3.104,3.964,3.104c2.782,0,3.989-1.616,3.989-3.275c0-1.531-1.014-2.394-3.104-2.952l-1.12-0.303
			c-1.467-0.388-2.048-0.948-2.048-1.81c0-1.078,0.926-1.812,2.349-1.812C170.106,95.091,171.012,95.761,171.206,96.858
			 M159.601,96.858h1.337c-0.108-1.744-1.594-2.995-3.729-2.995c-2.111,0-3.771,1.228-3.771,3.082c0,1.487,1.056,2.371,2.781,2.867
			l1.356,0.388c1.487,0.431,2.155,0.948,2.155,1.876c0,1.119-0.991,1.918-2.5,1.918c-1.423,0-2.564-0.647-2.715-1.854h-1.379
			c0.129,1.875,1.701,3.104,3.965,3.104c2.779,0,3.988-1.616,3.988-3.275c0-1.531-1.014-2.394-3.104-2.952l-1.121-0.303
			c-1.466-0.388-2.047-0.948-2.047-1.81c0-1.078,0.926-1.812,2.348-1.812C158.502,95.091,159.408,95.761,159.601,96.858
			 M145.412,96.062h0.148l1.607,4.85h-3.373L145.412,96.062z M142.414,105.05l0.986-2.953h4.16l0.977,2.953h1.424l-3.797-11.035
			h-1.379l-3.793,11.035H142.414z"/>
	</g>
</g>
</svg>
