<?xml version="1.0" standalone="no"?>
<!DOCTYPE svg PUBLIC "-//W3C//DTD SVG 20010904//EN"
 "http://www.w3.org/TR/2001/REC-SVG-20010904/DTD/svg10.dtd">
<svg version="1.0" xmlns="http://www.w3.org/2000/svg"
 width="704.000000pt" height="704.000000pt" viewBox="0 0 704.000000 704.000000"
 preserveAspectRatio="xMidYMid meet">
<metadata>
Created by potrace 1.11, written by Peter Selinger 2001-2013
</metadata>
<g transform="translate(0.000000,704.000000) scale(0.100000,-0.100000)"
fill="#000000" stroke="none">
<path d="M3342 6558 c-28 -68 -103 -249 -167 -403 -63 -154 -119 -289 -125
-300 -5 -11 -39 -92 -75 -180 -36 -88 -70 -169 -75 -180 -16 -35 -210 -505
-210 -509 0 -2 -12 -30 -27 -62 -15 -33 -28 -63 -29 -69 -1 -5 -16 -41 -32
-80 -40 -94 -63 -149 -63 -152 0 -2 -9 -24 -20 -50 -23 -53 -255 -608 -381
-913 -44 -107 -84 -200 -89 -206 -5 -6 -10 -19 -12 -30 -2 -10 -10 -32 -17
-49 -7 -16 -14 -32 -15 -35 -1 -3 -8 -18 -15 -35 -7 -16 -14 -32 -15 -35 -5
-14 -59 -147 -76 -185 -61 -139 -159 -381 -159 -391 0 -8 -4 -14 -10 -14 -5 0
-10 -7 -10 -15 0 -8 -9 -34 -19 -58 -11 -23 -41 -94 -66 -157 -26 -63 -52
-121 -59 -129 -6 -8 -10 -15 -8 -15 4 -1 -5 -30 -18 -61 -41 -96 -78 -185
-140 -335 -40 -96 -78 -188 -85 -205 -7 -16 -30 -70 -50 -120 -20 -49 -43
-103 -50 -120 -8 -16 -30 -70 -50 -120 -72 -176 -82 -200 -95 -230 -7 -16 -19
-45 -26 -62 -8 -18 -20 -48 -28 -65 -7 -18 -19 -46 -26 -63 -7 -16 -14 -34
-16 -40 -2 -11 -83 -203 -103 -245 l-12 -25 -417 1 c-229 0 -423 -2 -429 -4
-10 -3 -13 -39 -13 -133 l0 -129 1140 0 c627 0 1141 3 1141 8 1 4 2 62 3 129
1 102 -1 122 -14 125 -8 2 -250 3 -538 3 l-523 0 6 23 c3 13 14 43 24 66 19
43 43 101 211 526 55 140 105 264 110 275 5 11 33 83 64 160 48 123 74 189 82
205 1 3 5 14 9 25 3 11 19 49 34 85 l28 65 1370 1 1369 1 23 -61 c12 -34 26
-69 32 -78 5 -10 9 -25 9 -33 0 -8 4 -23 10 -33 8 -16 99 -254 104 -277 3 -11
14 -40 26 -70 10 -24 54 -148 56 -155 0 -3 5 -16 11 -30 13 -33 77 -205 153
-415 34 -93 65 -179 69 -190 5 -11 14 -33 20 -49 7 -16 9 -31 6 -35 -4 -3
-226 -6 -493 -7 -268 -1 -490 -2 -493 -3 -4 0 -6 -60 -6 -131 l0 -130 1494 0
1494 0 -3 132 -3 132 -424 1 -424 0 -89 215 c-49 118 -98 234 -109 257 -10 24
-19 45 -19 48 0 4 -60 149 -95 230 -7 17 -25 59 -40 95 -14 36 -32 79 -39 95
-8 17 -46 109 -86 205 -40 96 -78 189 -85 205 -8 17 -30 71 -51 120 -20 50
-47 114 -60 143 -13 29 -24 54 -24 57 0 2 -43 106 -96 232 -53 125 -97 233
-99 238 -1 6 -12 33 -24 60 -13 28 -32 73 -42 100 -11 28 -26 64 -34 80 -8 17
-101 237 -206 490 -105 253 -196 474 -204 490 -7 17 -32 77 -56 135 -23 58
-46 109 -51 114 -4 6 -8 15 -8 22 0 6 -10 33 -22 60 -12 27 -23 51 -23 54 0 3
-11 27 -23 54 -12 27 -22 51 -22 54 0 2 -12 32 -26 66 -41 95 -50 116 -79 186
-28 68 -39 94 -73 175 -47 112 -115 274 -142 340 -28 67 -88 211 -190 455 -26
63 -71 171 -100 240 -77 185 -81 193 -96 223 -9 15 -13 27 -10 27 3 0 -9 30
-25 68 -43 96 -51 115 -59 137 -5 11 -15 36 -23 55 -8 19 -27 64 -42 100 -15
36 -34 82 -43 103 l-16 37 -131 0 -132 0 -51 -122z m-42 -1191 c0 -7 132 -365
145 -394 8 -17 15 -35 15 -40 0 -5 14 -44 31 -88 17 -44 32 -84 33 -90 4 -14
16 -46 28 -75 6 -14 12 -29 14 -35 2 -9 69 -192 124 -340 93 -249 92 -248 96
-260 2 -5 42 -113 89 -240 48 -126 88 -234 89 -240 2 -5 6 -17 9 -25 4 -8 36
-96 72 -195 36 -99 69 -189 74 -200 9 -20 109 -292 197 -535 42 -114 63 -171
84 -225 22 -55 22 -55 -23 -55 -56 -1 -2334 -1 -2414 0 l-63 0 21 53 c24 62
47 116 58 137 5 9 12 30 15 48 4 17 12 34 17 37 5 4 9 15 9 26 0 10 4 19 8 19
5 0 9 6 9 13 0 10 116 304 142 362 25 53 313 780 310 780 -1 0 4 11 11 25 8
14 15 30 16 35 7 27 157 391 165 400 5 5 9 17 9 26 0 9 12 43 26 75 14 33 29
68 34 79 4 11 25 63 46 114 21 52 39 100 41 105 2 9 33 87 153 381 4 11 22 56
40 100 18 44 39 94 46 112 8 17 14 33 14 36 0 2 7 21 15 41 l15 36 90 0 c50 0
90 -1 90 -3z"/>
</g>
</svg>
