<?xml version="1.0" encoding="utf-8"?>
<!-- Generator: Adobe Illustrator 16.0.0, SVG Export Plug-In . SVG Version: 6.00 Build 0)  -->
<!DOCTYPE svg PUBLIC "-//W3C//DTD SVG 1.0//EN" "http://www.w3.org/TR/2001/REC-SVG-20010904/DTD/svg10.dtd">
<svg version="1.0" id="Layer_1" xmlns="http://www.w3.org/2000/svg" xmlns:xlink="http://www.w3.org/1999/xlink" x="0px" y="0px"
	 width="24px" height="22px" viewBox="0 0 24 22" enable-background="new 0 0 24 22" xml:space="preserve">
<g>
	<path fill="none" stroke="#FF0000" stroke-linecap="round" stroke-linejoin="round" stroke-miterlimit="10" d="M5.5,16.5h-3
		c-1.1,0-2-0.9-2-2v-6c0-1.1,0.9-2,2-2h19c1.102,0,2,0.9,2,2v6c0,1.1-0.898,2-2,2h-3"/>
	<polyline fill="none" stroke="#FF0000" stroke-linecap="round" stroke-linejoin="round" stroke-miterlimit="10" points="5.5,4.5 
		5.5,0.5 15.5,0.5 18.5,3.5 18.5,4.5 	"/>
	
		<rect x="5.5" y="13.5" fill="none" stroke="#FF0000" stroke-linecap="round" stroke-linejoin="round" stroke-miterlimit="10" width="13" height="8"/>
	
		<circle fill="none" stroke="#FF0000" stroke-linecap="round" stroke-linejoin="round" stroke-miterlimit="10" cx="3.5" cy="9.5" r="1"/>
	
		<line fill="none" stroke="#FF0000" stroke-linecap="round" stroke-linejoin="round" stroke-miterlimit="10" x1="7.5" y1="15.5" x2="16.5" y2="15.5"/>
	
		<line fill="none" stroke="#FF0000" stroke-linecap="round" stroke-linejoin="round" stroke-miterlimit="10" x1="7.5" y1="17.5" x2="16.5" y2="17.5"/>
	
		<line fill="none" stroke="#FF0000" stroke-linecap="round" stroke-linejoin="round" stroke-miterlimit="10" x1="7.5" y1="19.5" x2="16.5" y2="19.5"/>
	<polyline fill="none" stroke="#FF0000" stroke-linecap="round" stroke-linejoin="round" stroke-miterlimit="10" points="15.5,0.5 
		15.5,3.5 18.5,3.5 	"/>
</g>
</svg>
